<?xml version="1.0" encoding="utf-8"?>
<!DOCTYPE svg PUBLIC "-//W3C//DTD SVG 1.1//EN" "http://www.w3.org/Graphics/SVG/1.1/DTD/svg11.dtd">
<svg version="1.1" id="Layer_1" xmlns="http://www.w3.org/2000/svg" xmlns:xlink="http://www.w3.org/1999/xlink" x="0px" y="0px"
     width="100%" height="100%" viewBox="-343.5 0 1367.5 768" enable-background="new -343.5 0 1367.5 768" xml:space="preserve" preserveAspectRatio="xMinYMin slice">
  <g id="clip">
      <clipPath id="mask-trigger-1">
          <path d="M392.826,397.008l130.219,46.848l-242.173,97.666l-123.074-88.137 L392.826,397.008z" />
      </clipPath>
      <clipPath id="mask-trigger-2">
          <path d="M521.458,215.969l137.364-58.757l-149.275-18.263l-147.185,41.288 L521.458,215.969z" />
      </clipPath>
      <clipPath id="mask-trigger-3">
          <path d="M527.717,438.986V224.8l128.159,31.408v124.125L527.717,438.986z" />
      </clipPath>
      <clipPath id="mask-trigger-4">
          <path d="M666.859,488.32l118.173-67.227l128.278-5.928l-72.123,70.774 L666.859,488.32z" />
      </clipPath>
      <clipPath id="mask-trigger-5">
          <path d="M657.953,489.979l-70.668,121.484L457.86,590.82l72.484-145.594 L657.953,489.979z" />
      </clipPath>
      <clipPath id="mask-trigger-6">
          <path d="M283.254,547.479l238.252-97.271l-70.715,138.954l-231.853,86.121 L283.254,547.479z" />
      </clipPath>
      <clipPath id="mask-trigger-7">
          <path d="M149.858,448.621l-11.116-227.887l-159.597,76.761l4.763,116.188 L149.858,448.621z" />
      </clipPath>
      <clipPath id="mask-trigger-8">
          <path d="M-17.679,417.652l169.126,34.144l-183.822,40.091l-84.96-50.819 L-17.679,417.652z" />
      </clipPath>
      <clipPath id="mask-trigger-9">
          <path d="M662.465,154.16l-37.784-89.452l102.894-4.779l54.788,140.542 L662.465,154.16z" />
      </clipPath>
      <clipPath id="mask-trigger-10">
          <path d="M783.579,415.959L891.566,303.5l3.177-206.447l-107.987,108.78 L783.579,415.959z" />
      </clipPath>


      <clipPath id="mask-trigger-11">
          <path d="M356.302,178.646L278.49,92.103l-123.072,35.73l-12.706,86.547 L356.302,178.646z" />
      </clipPath>
      <clipPath id="mask-trigger-12">
          <path d="M-102.64,621.718l64.316-127.839l-132.603,20.646l-56.534,95.282 L-102.64,621.718z" />
      </clipPath>
      <clipPath id="mask-trigger-13">
          <path d="M843.79,490.255l-80.562,107.989l109.981,79.422l80.991-121.659 L843.79,490.255z" />
      </clipPath>
      <clipPath id="mask-trigger-14">
          <path d="M-122.491,437.769l-43.959-167.014l-105.716,44.873l35.346,131.022 L-122.491,437.769z" />
      </clipPath>
      <clipPath id="mask-trigger-15">
          <path d="M-161.398,267.86l138.955,25.393l158.803-75.771l-117.516,5.913 L-161.398,267.86z" />
      </clipPath>
      <clipPath id="mask-trigger-16">
          <path d="M527.064,216.764L664.746,158.8l114.726,44.847l-116.315,47.75 L527.064,216.764z" />
      </clipPath>


      <clipPath id="mask-trigger-17">
          <path d="M360.271,177.202l140.938-39.048l-123.47-86.959l-95.28,39.318 L360.271,177.202z" />
      </clipPath>
      <clipPath id="mask-trigger-18">
          <path d="M20.433,220.218l117.515-5.838l13.499-86.547l-112.752,1.588 L20.433,220.218z" />
      </clipPath>
      <clipPath id="mask-trigger-19">
          <path d="M-170.926,510.819l132.601-20.117l-83.371-49.225l-114.944,8.534 L-170.926,510.819z" />
      </clipPath>
      <clipPath id="mask-trigger-20">
          <path d="M14.875,221.013l-146.853-73.273l-154.608,21.779l123.642,96.807 L14.875,221.013z" />
      </clipPath>
      <clipPath id="mask-trigger-21">
          <path d="M-20.855,413.683l-3.971-117.239l-138.16-26.483l44.466,167.437 L-20.855,413.683z" />
      </clipPath>
      <clipPath id="mask-trigger-22">
          <path d="M389.897,393.832l-3.214-113.057l-245.558-60.836l13.498,230.269 L389.897,393.832z" />
      </clipPath>
      <clipPath id="mask-trigger-23">
          <path d="M357.3,182.621l163.868,37.242l-132.105,58.039l-244.762-59.665 L357.3,182.621z" />
      </clipPath>
      <clipPath id="mask-trigger-24">
          <path d="M394.414,394.627l-3.176-113.056l130.22-58.176l1.587,217.178L394.414,394.627 z" />
      </clipPath>
      <clipPath id="mask-trigger-25">
          <path d="M530.191,442.477l130.973-57.486l119.898,34.831l-121.486,68.394 L530.191,442.477z" />
      </clipPath>

    </g>
    <image x="158px" y="395px" clip-path="url(#mask-trigger-1)" height="146px" width="365px" xlink:href="{{baseurl}}img/allvideos/{{content.module1.list[0].picture}}" preserveAspectRatio="xMidYMin slice"></image>
    <image x="360" y="130px" clip-path="url(#mask-trigger-2)" height="150px" width="300px" xlink:href="{{baseurl}}img/allvideos/{{content.module1.list[1].picture}}" preserveAspectRatio="xMidYMin slice"></image>
    <image x="520" y="222px" clip-path="url(#mask-trigger-3)" height="220px" width="140px" xlink:href="{{baseurl}}img/allvideos/{{content.module1.list[2].picture}}" preserveAspectRatio="xMidYMin slice"></image>
    <image x="660" y="417px" clip-path="url(#mask-trigger-4)" height="72px" width="250px" xlink:href="{{baseurl}}img/allvideos/{{content.module1.list[3].picture}}" preserveAspectRatio="xMidYMin slice"></image>
    <image x="457" y="444px" clip-path="url(#mask-trigger-5)" height="170px" width="203px" xlink:href="{{baseurl}}img/allvideos/{{content.module1.list[4].picture}}" preserveAspectRatio="xMidYMin slice"></image>
    <image x="220" y="449px" clip-path="url(#mask-trigger-6)" height="226px" width="303" xlink:href="{{baseurl}}img/allvideos/{{content.module1.list[5].picture}}" preserveAspectRatio="xMidYMin slice"></image>
    <image x="-20px" y="220px" clip-path="url(#mask-trigger-7)" height="230px" width="171px" xlink:href="{{baseurl}}img/allvideos/{{content.module1.list[6].picture}}" preserveAspectRatio="xMidYMin slice"></image>
    <image x="-120" y="413px" clip-path="url(#mask-trigger-8)" height="80px" width="270px" xlink:href="{{baseurl}}img/allvideos/{{content.module1.list[7].picture}}" preserveAspectRatio="xMidYMin slice"></image>
    <image x="625" y="55px" clip-path="url(#mask-trigger-9)" height="145px" width="156px" xlink:href="{{baseurl}}img/allvideos/{{content.module1.list[8].picture}}" preserveAspectRatio="xMidYMin slice"></image>
    <image x="786" y="95px" clip-path="url(#mask-trigger-10)" height="320px" width="110px" xlink:href="{{baseurl}}img/allvideos/{{content.module1.list[9].picture}}" preserveAspectRatio="xMidYMin slice"></image>

    <image x="140" y="90px" clip-path="url(#mask-trigger-11)" height="126px" width="220px" xlink:href="{{baseurl}}img/allvideos/{{content.module3.list[0].picture}}" preserveAspectRatio="xMidYMin slice"></image>
    <image x="-230" y="495px" clip-path="url(#mask-trigger-12)" height="130px" width="192px" xlink:href="{{baseurl}}img/allvideos/{{content.module3.list[1].picture}}" preserveAspectRatio="xMidYMin slice"></image>
    <image x="760" y="485px" clip-path="url(#mask-trigger-13)" height="193px" width="193px" xlink:href="{{baseurl}}img/allvideos/{{content.module3.list[2].picture}}" preserveAspectRatio="xMidYMin slice"></image>
    <image x="-274" y="270px" clip-path="url(#mask-trigger-14)" height="176px" width="153px" xlink:href="{{baseurl}}img/allvideos/{{content.module3.list[3].picture}}" preserveAspectRatio="xMidYMin slice"></image>
    <image x="-164" y="185px" clip-path="url(#mask-trigger-15)" height="120px" width="320px" xlink:href="{{baseurl}}img/allvideos/{{content.module3.list[4].picture}}" preserveAspectRatio="xMidYMin slice"></image>
    <image x="529" y="155px" clip-path="url(#mask-trigger-16)" height="100px" width="250px" xlink:href="{{baseurl}}img/allvideos/{{content.module3.list[5].picture}}" preserveAspectRatio="xMidYMin slice"></image>
     
    <image x="280" y="45px" clip-path="url(#mask-trigger-17)" height="150px" width="230" xlink:href="{{baseurl}}img/allvideos/{{content.allvideos.list[0].picture}}" preserveAspectRatio="xMidYMin slice"></image>
    <image x="0" y="115px" clip-path="url(#mask-trigger-18)" height="130px" width="170px" xlink:href="{{baseurl}}img/allvideos/{{content.allvideos.list[1].picture}}" preserveAspectRatio="xMidYMin slice"></image>
    <image x="-250" y="435px" clip-path="url(#mask-trigger-19)" height="100px" width="232px" xlink:href="{{baseurl}}img/allvideos/{{content.allvideos.list[2].picture}}" preserveAspectRatio="xMidYMin slice"></image>
    <image x="-300" y="135px" clip-path="url(#mask-trigger-20)" height="140px" width="322px" xlink:href="{{baseurl}}img/allvideos/{{content.allvideos.list[3].picture}}" preserveAspectRatio="xMidYMin slice"></image>
    <image x="-180" y="250px" clip-path="url(#mask-trigger-21)" height="200px" width="162px" xlink:href="{{baseurl}}img/allvideos/{{content.allvideos.list[4].picture}}" preserveAspectRatio="xMidYMin slice"></image>
    <image x="140px" y="200px" clip-path="url(#mask-trigger-22)" height="300px" width="252px" xlink:href="{{baseurl}}img/allvideos/{{content.allvideos.list[5].picture}}" preserveAspectRatio="xMidYMin slice"></image>
    <image x="140px" y="170px" clip-path="url(#mask-trigger-23)" height="117px" width="382px" xlink:href="{{baseurl}}img/allvideos/{{content.allvideos.list[6].picture}}" preserveAspectRatio="xMidYMin slice"></image>
    <image x="350px" y="205px" clip-path="url(#mask-trigger-24)" height="240px" width="232px" xlink:href="{{baseurl}}img/allvideos/{{content.allvideos.list[7].picture}}" preserveAspectRatio="xMidYMin slice"></image>
    <image x="510px" y="378px" clip-path="url(#mask-trigger-25)" height="120px" width="282px" xlink:href="{{baseurl}}img/allvideos/{{content.allvideos.list[8].picture}}" preserveAspectRatio="xMidYMin slice"></image>
</svg>