<?xml version="1.0" encoding="utf-8"?>
<!DOCTYPE svg PUBLIC "-//W3C//DTD SVG 1.1//EN" "http://www.w3.org/Graphics/SVG/1.1/DTD/svg11.dtd"><svg version="1.1" id="Layer_1" xmlns="http://www.w3.org/2000/svg" xmlns:xlink="http://www.w3.org/1999/xlink" x="0px" y="0px" width="100%" height="100%" viewBox="-343 0 1368 768" enable-background="new -343 0 1368 768" xml:space="preserve" preserveAspectRatio="none">
<g>
       
                <polygon points="-292.456,714.185 -216.45,801.45 -219.883,928.884 -293.334,840.286      "/>
        <polygon points="-286.5,-163.5 -295.647,-6.668 -485.618,-9.117 -562.5,-126.5    "/>
        <polygon points="-358.838,258.99 -472.497,453.665 -416.318,500.633 -346.649,477.93      "/>
        <polygon points="-421.952,190.152 -359.997,252.765 -473.632,448.417 -558.5,297.318      "/>
        <polygon points="-472.665,458.665 -420.467,501.916 -371.711,645.524 -443.605,592.775    "/>
        <polygon points="-487.098,-2.068 -399.007,105.229 -547.983,200.357 -580.051,88.5        "/>
        <polygon points="277.548,864.801 587.217,870.084 672.5,978.978 219.663,897.008  "/>
        <polygon points="994.232,18.365 1028.337,373.93 1117.219,318.095 1089.349,46.095        "/>
        <polygon points="-58.36,781.135 20.85,853.991 7,916 -84.518,853.5       "/>
        <polygon points="239.5,775.5 163.896,864.82 130.658,973.981 213.849,897.933     "/>
        <polygon points="10.365,917.5 24.729,855.836 160.174,868.031 128.97,972.529     "/>
        <polygon points="715.212,815.594 679.345,978.879 739,922.5      "/>
        <polygon points="651.5,-9 711.627,18.543 832.912,-27.698 732.5,-59.5    "/>
        <polygon points="736.051,-61.698 837.35,-29.481 946.623,-49.622 857.166,-84.166         "/>
        <polygon points="426.499,-79.215 544.541,-79.056 487.419,-0.851 371,-4  "/>
        <polygon points="230.121,-101.539 250.517,-0.851 361.851,-6.5 336.5,-106.996    "/>
        <polygon points="-44.014,-133.111 8.998,-107.94 -29.098,-2.387 -72.935,-34.474  "/>
        <polygon points="-290.837,-7.851 -279.597,-160.365 -118.458,-105.073 -115.5,-4.5        "/>
        <polygon points="-111.5,-7.5 -114.652,-107.118 -48.5,-138.073 -77.227,-31.85    "/>
        <polygon points="717.833,815.594 804.5,891.167 825.233,978.978 743.167,921.889  "/>
        <polygon points="808.034,889.633 953.35,902.317 972.346,1000.5 828.5,978.978    "/>
        <polygon points="978.501,687.449 1003.834,584.966 1069.5,597.833 1064.501,706.584       "/>
        <polygon points="974.499,1000.5 955.899,899.768 1033.833,967.834 1043.533,1053.834      "/>
        <polygon points="1027.75,378.586 1121.166,320.5 1210.499,355.004 1119.772,418.716       "/>
        <polygon points="1120.258,316.952 1210.499,351.167 1181.833,115.967 1093.166,46.869     "/>
        <polygon points="1093.166,42.989 1181.166,110.177 1137.322,33.447 1051.166,-25.5        "/>
        <polygon points="366.316,-3.979 422.67,-80.63 394.777,-169.433 339.635,-108.131         "/>
        <polygon points="547.72,2.052 645.166,-9.103 657.833,-86.706 551.833,-79.215    "/>
        <polygon points="647.922,-10.379 733.367,-63.216 736.536,-166.828 660.951,-86.706       "/>
        <polygon points="736.536,-65.332 857.45,-88.036 869.167,-181.5 739.371,-166.828         "/>
        <polygon points="859.569,-86.051 969.834,-79.215 1047.834,-29.048 952.986,-51.5         "/>
        <polygon points="658.969,-89.452 732.319,-166.828 611.423,-152.832 550.269,-83.315      "/>
        <polygon points="425.749,-82.464 546.021,-82.464 607.566,-153.576 398.501,-170.568      "/>
        <polygon points="198.118,-3.42 224.27,-101.539 11.835,-106.996 -26.003,-1.5     "/>
        <polygon points="337.081,-108.945 394.218,-172.647 252.501,-169.433 228.326,-105.792    "/>
        <polygon points="224.553,-105.578 248.716,-169.149 50.805,-170.568 12.785,-109.882      "/>
        <path d="M-433.5,110.899"/>
        <polygon points="-424.219,185.334 -398.556,108.451 -545.997,204.34 -559.348,293.994     "/>
        <polygon points="134.666,975.951 214.559,901.751 369.5,1030.5 265.573,1117.5    "/>
        <polygon points="217.579,899.097 675.335,983.665 717.833,1088.5 372.335,1024.83         "/>
        <polygon points="-370.295,650.058 -444.5,598.645 -462.083,694.816 -374.546,716.484      "/>
        <polygon points="-582.034,84.887 -488.818,-5.275 -564.483,-120.014 -641.814,-28.764     "/>
        <polygon points="-477.393,457.133 -605.5,524.5 -558.5,630.087 -449.216,592.775  "/>
        <polygon points="-476.542,451.189 -562.932,299.811 -687.5,285.175 -630.5,429.716        "/>
        <polygon points="-448.365,594.394 -465.216,694.485 -588.5,747.26 -558.5,636.087         "/>
        <polygon points="-375.081,719.801 -461.797,697.988 -585.665,750.095 -488.253,787.148    "/>
        <polygon points="-478.526,452.888 -631.5,434.3 -789.5,496.5 -607.665,518.665    "/>
        <polygon points="-372.528,721.783 -298.665,840.984 -424.996,904.665 -485.419,789.983    "/>
        <polygon points="-216.45,928.884 -210.5,803.76 -89.052,855.948 -80.549,973.966  "/>
        <polygon points="-562.5,293.994 -550.5,200.371 -582.021,91.5 -615.334,202.584   "/>
        <polygon points="-584.572,88.57 -618.5,200.357 -740.531,119.646 -644.649,-23.095        "/>
        <polygon points="-565.334,296.829 -619.5,205.418 -744.5,123.332 -687.5,279.5    "/>
        <polygon points="1073.916,596.482 1164.481,547.005 1198.5,668.5 1069.5,706.584  "/>
        <polygon points="1072.985,591.901 1121.96,422.152 1210.499,359.167 1164.481,542.339     "/>
        <polygon points="1069.5,710.743 1197.651,674.95 1165.167,914.501 1039.167,964.803       "/>
        <polygon points="1036.332,968.332 1049.203,1054.837 1165.167,1135.167 1157.834,1029.167         "/>
        <polygon points="1039.282,966.913 1165.167,916.501 1284.5,949.834 1159.253,1024.913     "/>
        <polygon points="859.665,-88.949 970.5,-82.464 1089.367,-186.167 873.167,-181.5         "/>
        <path d="M973.382-81.765c0,0,73.515,51.383,75.516,48.717s126.936-123.785,126.936-123.785l-84.197-28.482L973.382-81.765z"/>
        <polygon points="1052.04,-28.062 1241.167,-109.132 1351.833,-47.595 1138.592,30.351     "/>
        <polygon points="1141.459,34.4 1352.974,35.535 1404.359,128.599 1185.55,110.744         "/>
        <path d="M1181.833,115.967"/>
        <polygon points="1186.033,115.4 1408.5,132.5 1457.833,373.93 1214.417,351.167   "/>
        <polygon points="1143.099,31.747 1354.5,-46.162 1503.833,-32.948 1352.966,32.315        "/>
        <polygon points="1212.912,357.181 1251.826,497.658 1201.335,664.331 1167.833,545.928    "/>
        <polygon points="1214.6,354.8 1255.166,494.5 1489.833,528.5 1457.833,378.883    "/>
        <polygon points="1167.833,913.718 1284.5,945.066 1299.166,811.5 1201.166,674.95         "/>
        <polygon points="1203.166,668.499 1419.166,678.499 1489.833,533.833 1255.166,499.166    "/>
        <path d="M1204.302,673.817l216.864,7.714L1522.5,810.008c0,0-214.283-2.342-218.95-0.85S1204.302,673.817,1204.302,673.817z"/>
        <path d="M-422.188,908.501c1.355-0.667,126.915-64.667,126.915-64.667l74.44,90.667l-55.06,110.666L-422.188,908.501z"/>
        <polygon points="-270.833,1045.167 -216.45,934.501 -80.833,978.978 -65.5,1137.167       "/>
        <polygon points="-85.767,857.255 -76.286,974.249 20.85,1079.167 6.5,919.054     "/>
        <polygon points="-77.351,979.323 20.85,1083.834 28.5,1267.167 -61.928,1140.002  "/>
        <polygon points="10.365,921.889 131.226,977.746 260.631,1117.5 25.167,1079.167  "/>
        <polygon points="1050.338,-31.814 1242.5,-112.834 1326.5,-190.167 1181.166,-157.5       "/>
</g></svg>